# xmcd
#
# Track frame offsets: 
#        150
#        13734
#        30572
#        45315
#        61575
#        75367
#        92011
#        104540
#        123535
#        134693
#        152024
#        171276
#        193180
#        205881
#        219420
#        234801
#        245892
#        264946
#        278711
#        292360
#
# Disc length: 4106 seconds
#
# Revision: 0
# Processed by: cddbd v1.5.2PL0 Copyright (c) Steve Scherf et al.
# Submitted via: ExactAudioCopy v0.95b4
#
DISCID=1c100814
DTITLE=Various Artist - The Very Best of Country Radio Disc 1
DYEAR=2005
DGENRE=Country
TTITLE0=Randy Travis - 1982
TTITLE1=The Oak Ridge Boys - Elvira
TTITLE2=The Judds - Mama, He's Crazy
TTITLE3=Vince Gill - Cinderella
TTITLE4=John Anderson - Swingin'
TTITLE5=Kenny Rogers - Crazy
TTITLE6=Dolly Parton - 9 to 5
TTITLE7=Keith Whitley - Don't Close Your Eyes
TTITLE8=Sylvia - Drifter
TTITLE9=Paul Overstreet - Sowin' Love
TTITLE10=Hank Williams Jr. - A Country Boy Can Survive
TTITLE11=Dan Seals - Everything That Glitters (Is Not Gold)
TTITLE12=Barbara Mandrell - One of a Kind Pair of Fools
TTITLE13=Mel Mcdaniel - Baby's Got Her Blue Jeans On
TTITLE14=Eddie Rabbit - The Wanderer
TTITLE15=Eddy Raven - I Got Mexico
TTITLE16=K.T. Oslin - 80's Ladies
TTITLE17=Charley Pride - Never Been So Loved (In All My Life)
TTITLE18=Lee Greenwood - Hearts Arent's Made To Break (They're Made To
TTITLE18=Love)
TTITLE19=Steve Wariner - All Roads Lead to You
EXTD=
EXTT0=
EXTT1=
EXTT2=
EXTT3=
EXTT4=
EXTT5=
EXTT6=
EXTT7=
EXTT8=
EXTT9=
EXTT10=
EXTT11=
EXTT12=
EXTT13=
EXTT14=
EXTT15=
EXTT16=
EXTT17=
EXTT18=
EXTT19=
PLAYORDER=
